# xmcd
#
# Track frame offsets: 
#        150
#        13600
#        30685
#        46222
#        67397
#        83734
#        99074
#        114711
#        129759
#        146188
#        161343
#        177445
#        204733
#        221600
#        236365
#        255626
#        270607
#        285082
#        301976
#        323597
#
# Disc length: 4503 seconds
#
# Revision: 2
# Processed by: cddbd v1.5.2PL0 Copyright (c) Steve Scherf et al.
# Submitted via: ExactAudioCopy v1.3
#
DISCID=11119514
DTITLE=Various Artists (Priester) - Gnadenlos Deutsch Spezial! - Mallo
DTITLE=rca 2005
DYEAR=2005
DGENRE=Discofox
TTITLE0=Almklausi - Seeräuber-Opa-Fabian (Piraten Mix)
TTITLE1=Sina - Sixpack
TTITLE2=Partynator Peter Wackel - Agadou
TTITLE3=Oliver Frank - Nichts als die Wahrheit (La Veritá) (Arena Mix)
TTITLE4=Nico Gemba - Versprochen ist versprochen
TTITLE5=Michael Wendler - Ist der Ruf erst ruiniert
TTITLE6=Strandgeier Feat. Hagen Western ohne Müller - Ragazza
TTITLE7=Antonia - Dirndlsong
TTITLE8=Leo Colonia - Tortellini Al Forno
TTITLE9=Partyschweine - Migräne
TTITLE10=Paraplüs - Wie geil ist das denn
TTITLE11=Andreas Rauch - Ich bin doch nicht blöd
TTITLE12=Frank Lars - Was hat er
TTITLE13=Papaoke - Schwimmbecken-Pinkler
TTITLE14=Timo - Rosamunde (Party Mix)
TTITLE15=Partystars United - Gute Freunde kann niemand trennen
TTITLE16=Lollies Feat. Die Weltmeister - Jürgen Klinsmann über alle
TTITLE17=Ralf Andre - Sexy Lady (Single Version)
TTITLE18=Bert Silver - Die Götter müssen verrückt sein
TTITLE19=Manfred Peter - Am Strand von Mexiko
EXTD=
EXTT0=
EXTT1=
EXTT2=
EXTT3=
EXTT4=
EXTT5=
EXTT6=
EXTT7=
EXTT8=
EXTT9=
EXTT10=
EXTT11=
EXTT12=
EXTT13=
EXTT14=
EXTT15=
EXTT16=
EXTT17=
EXTT18=
EXTT19=
PLAYORDER=
